<?xml version="1.0" encoding="utf-8"?>
<!-- Generator: Adobe Illustrator 15.1.0, SVG Export Plug-In . SVG Version: 6.00 Build 0)  -->
<!DOCTYPE svg PUBLIC "-//W3C//DTD SVG 1.1//EN" "http://www.w3.org/Graphics/SVG/1.1/DTD/svg11.dtd">
<svg version="1.1" id="Layer_1" xmlns="http://www.w3.org/2000/svg" xmlns:xlink="http://www.w3.org/1999/xlink" x="0px" y="0px"
	 width="60.5px" height="60px" viewBox="12.167 0 60.5 60" enable-background="new 12.167 0 60.5 60" xml:space="preserve">
<g id="Layer_2">
</g>
<g id="Layer_1_1_">
	<g>
		<path fill="#F0E68C" d="M68.695,30.002c-0.003-1.133,0.903-2.048,2.022-2.051c-0.08-1.144-0.226-2.271-0.433-3.381l-0.005,0.003
			c-1.081,0.294-2.191-0.357-2.482-1.45c-0.289-1.094,0.354-2.216,1.432-2.512h0.01c-0.37-1.079-0.803-2.132-1.29-3.149
			l-0.006,0.003c-0.97,0.566-2.206,0.232-2.767-0.749c-0.561-0.981-0.228-2.234,0.742-2.804c-0.629-0.942-1.315-1.842-2.051-2.7
			c-0.791,0.798-2.072,0.798-2.862,0c-0.792-0.798-0.792-2.099,0-2.902c-0.85-0.741-1.74-1.437-2.671-2.074V6.24
			c-0.561,0.978-1.798,1.317-2.765,0.749c-0.97-0.567-1.303-1.819-0.743-2.799l0.002-0.005c-1.004-0.496-2.043-0.931-3.109-1.305
			v0.005c-0.291,1.094-1.404,1.743-2.481,1.449c-1.08-0.291-1.722-1.416-1.435-2.51l0.002-0.004
			c-1.09-0.212-2.205-0.361-3.338-0.444c0,1.136-0.908,2.053-2.022,2.053c-1.121,0-2.027-0.917-2.027-2.053
			c-1.134,0.083-2.245,0.232-3.337,0.444v0.004c0.289,1.092-0.35,2.219-1.432,2.51c-1.082,0.293-2.19-0.355-2.48-1.449V2.877
			c-1.07,0.376-2.109,0.812-3.113,1.308l0.002,0.003c0.56,0.982,0.227,2.234-0.739,2.801c-0.971,0.568-2.208,0.229-2.767-0.749
			L26.55,6.237c-0.93,0.638-1.822,1.333-2.67,2.074c0.793,0.803,0.791,2.101,0.002,2.898c-0.793,0.801-2.074,0.801-2.864,0.003
			V11.21c-0.735,0.861-1.421,1.761-2.052,2.703h0.003c0.968,0.569,1.3,1.82,0.74,2.802c-0.562,0.983-1.798,1.317-2.766,0.751
			l-0.005-0.003c-0.49,1.017-0.918,2.071-1.291,3.149h0.008c1.08,0.294,1.721,1.418,1.431,2.51c-0.288,1.094-1.4,1.746-2.479,1.449
			h-0.003c-0.209,1.107-0.356,2.234-0.435,3.381c1.116,0,2.021,0.918,2.021,2.051c0.003,1.129-0.905,2.049-2.021,2.049
			c0.078,1.146,0.226,2.273,0.435,3.378h0.003c1.079-0.291,2.191,0.356,2.479,1.446c0.29,1.094-0.351,2.222-1.431,2.513h-0.008
			c0.368,1.081,0.801,2.135,1.291,3.151l0.002-0.003c0.971-0.566,2.207-0.229,2.769,0.751c0.56,0.981,0.228,2.231-0.74,2.799h-0.003
			c0.631,0.944,1.316,1.847,2.052,2.705c0.79-0.801,2.071-0.801,2.862,0c0.791,0.799,0.791,2.099,0,2.896
			c0.848,0.746,1.74,1.439,2.67,2.078v-0.004c0.561-0.979,1.798-1.313,2.769-0.751c0.966,0.569,1.299,1.822,0.739,2.804
			l-0.002,0.006c1.004,0.492,2.043,0.929,3.111,1.306l0.002-0.008c0.29-1.093,1.398-1.744,2.48-1.447
			c1.078,0.291,1.719,1.413,1.432,2.507l-0.004,0.004c1.096,0.213,2.207,0.362,3.341,0.442c0-1.133,0.906-2.05,2.025-2.05
			c1.116,0,2.024,0.917,2.024,2.048v0.002c1.133-0.08,2.244-0.229,3.336-0.442v-0.004c-0.287-1.094,0.354-2.216,1.432-2.507
			c1.08-0.297,2.191,0.354,2.481,1.447l0.003,0.008c1.066-0.377,2.104-0.812,3.109-1.306l-0.002-0.006
			c-0.56-0.98-0.227-2.233,0.74-2.801c0.967-0.566,2.207-0.231,2.768,0.748v0.004c0.931-0.639,1.821-1.332,2.671-2.076v-0.002
			c-0.792-0.797-0.792-2.098,0-2.896c0.79-0.801,2.071-0.801,2.862,0c0.735-0.856,1.422-1.758,2.051-2.703v-0.002
			c-0.97-0.563-1.303-1.817-0.742-2.799c0.559-0.979,1.797-1.313,2.765-0.751l0.008,0.005c0.487-1.021,0.92-2.069,1.29-3.149
			l-0.01-0.004c-1.077-0.291-1.721-1.416-1.432-2.507c0.289-1.096,1.401-1.743,2.482-1.452h0.005
			c0.207-1.104,0.353-2.23,0.433-3.378C69.599,32.052,68.692,31.132,68.695,30.002"/>
		<path fill="#353C1D" d="M51.511,13.399h-5.506L41.626,46.6h4.773l1.027-8.068h2.724l1.028,8.068h4.742L51.511,13.399z
			 M48.783,34.618c-1.093,0-1.98-0.898-1.98-2.007s0.888-2.004,1.98-2.004c1.092,0,1.982,0.896,1.982,2.004
			C50.766,33.72,49.876,34.618,48.783,34.618z"/>
	</g>
	<path fill="#353C1D" d="M39,14.876c1.028,1.12,1.542,2.607,1.542,4.466v5.015h-4.513v-5.015c0-0.157-0.021-0.34-0.063-0.553
		c-0.045-0.214-0.119-0.409-0.227-0.59c-0.109-0.177-0.256-0.329-0.439-0.453c-0.183-0.123-0.428-0.182-0.732-0.182
		c-0.022,0-0.041,0.002-0.064,0.005v-0.005c-0.303,0-0.546,0.059-0.729,0.182c-0.183,0.124-0.33,0.276-0.438,0.453
		c-0.109,0.181-0.186,0.376-0.228,0.59c-0.045,0.213-0.066,0.396-0.066,0.553v21.75c0,0.314,0.077,0.617,0.227,0.906
		c0.15,0.293,0.51,0.438,1.07,0.438c0.433,0,0.787-0.117,1.068-0.353c0.282-0.233,0.421-0.544,0.421-0.923v-6.283h-1.526v-3.992
		h6.039v10.037c0,1.928-0.508,3.387-1.525,4.385c-1.018,0.996-2.454,1.495-4.312,1.495c-2.08,0-3.592-0.495-4.545-1.481
		c-0.951-0.981-1.427-2.461-1.427-4.43V19.342c0-1.859,0.515-3.346,1.542-4.466c1.029-1.12,2.516-1.678,4.465-1.678
		C36.482,13.198,37.969,13.756,39,14.876z"/>
</g>
</svg>
